<svg xmlns="http://www.w3.org/2000/svg" width="16" height="15" viewBox="0 0 16 15">
  <defs>
    <style>
      .cls-1 {
        fill: #cedae6;
        fill-rule: evenodd;
      }
    </style>
  </defs>
  <path id="_-e-star_copy_2" data-name="-e-star copy 2" class="cls-1" d="M124.21,406.059l-4.124-.446a0.7,0.7,0,0,1-.556-0.4l-1.7-3.7a0.9,0.9,0,0,0-1.632,0l-1.717,3.7a0.691,0.691,0,0,1-.556.4l-4.123.446a0.869,0.869,0,0,0-.505,1.519l3.063,2.739a0.679,0.679,0,0,1,.219.644l-0.842,3.978a0.9,0.9,0,0,0,1.33.941l3.6-2.014a0.733,0.733,0,0,1,.69,0l3.6,2.014a0.9,0.9,0,0,0,1.33-.941l-0.842-3.978a0.633,0.633,0,0,1,.2-0.644l3.064-2.739A0.879,0.879,0,0,0,124.21,406.059Z" transform="translate(-109 -401)"/>
</svg>
